<svg width="22" height="20" viewBox="0 0 22 20" fill="none" xmlns="http://www.w3.org/2000/svg">
<path d="M8 1.5V18.5M1.464 7.344C1.216 7.344 0.989003 7.142 1 6.879C1.067 5.337 1.255 4.333 1.78 3.539C2.07946 3.08653 2.45501 2.68933 2.89 2.365C4.055 1.5 5.7 1.5 8.992 1.5H13.006C16.298 1.5 17.943 1.5 19.11 2.365C19.541 2.685 19.917 3.082 20.219 3.539C20.744 4.333 20.932 5.337 20.999 6.879C21.01 7.142 20.783 7.344 20.534 7.344C19.148 7.344 18.024 8.533 18.024 10C18.024 11.467 19.148 12.656 20.534 12.656C20.783 12.656 21.01 12.858 20.999 13.122C20.932 14.663 20.744 15.667 20.219 16.462C19.9195 16.9141 19.5439 17.311 19.109 17.635C17.943 18.5 16.298 18.5 13.006 18.5H8.993C5.701 18.5 4.056 18.5 2.889 17.635C2.45437 17.3106 2.07916 16.9134 1.78 16.461C1.255 15.667 1.067 14.663 1 13.121C0.989003 12.858 1.216 12.656 1.464 12.656C2.85 12.656 3.974 11.467 3.974 10C3.974 8.533 2.85 7.344 1.464 7.344Z" stroke="white" stroke-width="1.5" stroke-linecap="round" stroke-linejoin="round"/>
</svg>